<?xml version="1.0" encoding="UTF-8"?>
<!-- Generator: Adobe Illustrator 24.0.1, SVG Export Plug-In . SVG Version: 6.00 Build 0)  -->
<svg version="1.1" id="Layer_1" xmlns="http://www.w3.org/2000/svg" xmlns:xlink="http://www.w3.org/1999/xlink" x="0px" y="0px" viewBox="0 0 107.61 100.49" style="enable-background:new 0 0 107.61 100.49;" xml:space="preserve">
<style type="text/css">
	.st0{display:none;}
	.st1{display:none;}
	.st2{display:none;}
	.st3{display:none;}
	.st4{fill:#FFFFFF;}
</style>
<path class="st0" d="M52.75,137.63c-24.49,0-48.98-0.01-73.47,0.04c-1.33,0-1.5-0.34-1.5-1.56c0.04-48.86,0.04-97.72-0.01-146.58  c0-1.33,0.34-1.5,1.56-1.5c48.98,0.04,97.95,0.04,146.93-0.01c1.33,0,1.5,0.34,1.5,1.56c-0.04,48.86-0.04,97.72,0.01,146.58  c0,1.33-0.34,1.5-1.56,1.5C101.73,137.62,77.24,137.63,52.75,137.63z M67.92,52.65c3.99-1.69,7.89-1,10.03,2.26  c8.63,13.18,10.49,26.94,3.08,41.35c-0.38,0.74-0.84,1.22-1.72,1.51c-2.16,0.73-3.15,3.06-2.39,5.16c0.73,2,2.98,3.08,5.02,2.4  c2.17-0.72,3.37-2.85,2.6-5.03c-0.34-0.97-0.16-1.63,0.28-2.42c1.11-2.01,2.23-4.04,2.86-6.25c3.94-13.83,1.92-26.77-6.05-38.74  c-2.85-4.28-7.92-6.06-12.96-4.9c-0.48,0.11-1.32,0.88-1.54,0.04c-0.26-1.02-1.32-2.15-0.21-3.26c6.84-6.87,13.7-13.72,20.66-20.68  c0.63,0.81,1.18,1.47,1.7,2.17c5.6,7.54,8.6,16.02,8.91,25.39c0.05,1.53,0.51,1.87,1.9,1.78c1.68-0.11,3.37-0.08,5.04-0.01  c1.01,0.04,1.28-0.33,1.24-1.28c-0.12-2.86-0.37-5.7-0.89-8.51c-2.17-11.68-7.79-21.46-16.29-29.7c-1.16-1.12-1.68-1.18-2.84-0.01  c-7.47,7.58-15.06,15.04-22.54,22.61c-1.02,1.03-1.44,0.98-2.28-0.15c-2.03-2.72-4.68-4.77-7.56-6.56  c-1.07-0.66-1.84-0.57-2.84,0.04c-2.79,1.7-5.39,3.65-7.3,6.29c-1.11,1.53-1.7,1.15-2.79,0.05c-7.49-7.56-15.06-15.04-22.56-22.59  c-0.84-0.84-1.27-0.9-2.16-0.02c-3.59,3.56-6.9,7.33-9.56,11.65c-5.03,8.16-7.6,17.05-7.97,26.6c-0.05,1.16,0.2,1.7,1.5,1.59  c1.36-0.12,2.74-0.03,4.11-0.03c2.48,0,2.46,0,2.58-2.39c0.49-9.58,3.75-18.13,9.61-25.72c0.75-0.98,1.15-1.04,2.04-0.13  c3.78,3.88,7.64,7.67,11.48,11.49c2.6,2.59,5.13,5.26,7.83,7.75c1.37,1.26,0.48,2.43,0.12,3.52c-0.37,1.12-1.25,0.1-1.82,0  c-5.06-0.88-9.54,0.34-12.37,4.62c-9.46,14.3-11.41,29.35-3.64,45.09c0.49,1,0.72,1.78,0.33,2.93c-0.68,2.06,0.64,4.14,2.75,4.8  c2.03,0.64,4.28-0.5,4.96-2.52c0.69-2.02-0.29-4.39-2.31-5.04c-1.04-0.33-1.46-0.97-1.94-1.78c-3.54-5.99-4.6-12.53-4.31-19.34  c0.34-7.94,2.84-15.2,7.44-21.7c2.1-2.97,5.98-4,9.34-2.7c0.67,0.26,1.12,0.53,1.1,1.42c-0.08,4.22-0.07,8.45-0.09,12.67  c-0.18,0-0.36,0-0.53,0c-0.94-3.02-3.05-4.73-5.9-4.78c-2.79-0.05-5.28,1.85-6.22,4.74c-1.53,4.73,1.88,9.54,7.02,9.78  c2.8,0.13,5.6-0.03,8.4,0.06c1.17,0.04,1.46-0.33,1.44-1.47c-0.07-3.7-0.03-7.4-0.03-11.21c1.13,0.44,1.12,1.22,1.12,2.05  c-0.02,3.17-0.01,6.34-0.01,9.5c0,4.06,0,4.09-4.01,4.06c-3.14-0.02-5.72,1.08-7.61,3.6C27.6,87.49,29.85,93.96,35.43,95  c3.3,0.62,6.47-1.55,7.21-4.94c0.65-2.96-1.09-5.52-4.28-6.3c0.01-0.17,0.02-0.35,0.03-0.52c2.3-0.02,4.61-0.13,6.9-0.04  c1.27,0.05,1.7-0.26,1.67-1.61c-0.09-4.41-0.05-8.82-0.01-13.23c0-0.43-0.43-1.28,0.43-1.26c0.81,0.01,0.52,0.85,0.52,1.35  c0.02,10.75,0.01,21.49,0.01,32.24c0,2.81-0.96,5.23-3.08,7.11c-1.76,1.56-3.98,1.93-5.67,1.03c0.21-0.47,0.63-0.3,0.97-0.29  c2.06,0.07,3.41-0.99,4.3-2.7c1.24-2.38,1.03-4.72-0.63-6.79c-1.86-2.33-4.42-2.91-7.23-2.24c-3.1,0.74-5.24,3.31-5.58,6.71  c-0.35,3.6,1.04,6.48,4.15,8.35c6.38,3.82,14.16,0.42,16.32-7.06c0.49-1.69,0.58-3.42,0.58-5.16c0-10.13,0-20.25,0.02-30.38  c0-0.46-0.39-1.28,0.49-1.33c0.94-0.06,0.5,0.79,0.58,1.25c0.07,0.36,0.01,0.74,0.01,1.12c0,9.75,0.02,19.51-0.03,29.26  c-0.01,1.2,0.28,1.61,1.54,1.55c2.17-0.09,4.35,0.01,6.53,0.03c0,0.1,0,0.2,0,0.29c-2.76,2.15-3.56,4.83-2.21,7.44  c2.1,4.07,7.81,4.5,10.79,0.78c1.88-2.35,2.17-5,0.95-7.69c-1.47-3.24-4.23-4.76-7.71-4.97c-1.49-0.09-2.99-0.03-4.48,0.06  c-0.95,0.05-1.28-0.21-1.28-1.22c0.04-9.19,0.02-18.38,0.03-27.57c0-0.46-0.18-1.16,0.53-1.16c0.75,0,0.42,0.71,0.42,1.1  c0.02,4.41,0.09,8.82-0.03,13.22c-0.04,1.53,0.46,1.85,1.87,1.79c2.23-0.1,4.48,0.02,6.71,0.04c0.01,0.17,0.02,0.35,0.03,0.52  c-2.17,0.38-3.56,1.66-4.17,3.75c-0.73,2.5,0.34,5.11,2.65,6.58c2.36,1.52,5.57,1.28,7.8-0.67c2.18-1.9,3.1-4.3,2.45-7.18  c-0.79-3.52-2.91-5.81-6.39-6.82c-1.77-0.51-3.59-0.3-5.39-0.28c-0.98,0.01-1.44-0.15-1.42-1.3c0.07-4.16,0.04-8.32,0.02-12.49  c0-0.79,0.06-1.48,1.12-1.82c0,3.77,0.05,7.47-0.03,11.17c-0.02,1.14,0.28,1.5,1.45,1.47c2.67-0.08,5.35-0.02,8.03-0.03  c2.09-0.01,3.88-0.8,5.41-2.16c2.23-1.98,2.97-5.38,1.83-8.19c-1.04-2.56-3.71-4.35-6.27-4.2c-2.83,0.17-4.79,1.81-5.71,4.78  c-0.18,0-0.36,0-0.53-0.01c-0.01-4.47-0.02-8.94-0.02-13.41C67.74,52.86,67.83,52.75,67.92,52.65z"/>
<path class="st1" d="M68.21,66.38c0.01,0.37,0.01,0.74,0.03,1.11c0.08,1.32,0.27,2.67,1.55,3.35c0.61,0.32,2.51-2.31,2.57-3.49  c0.04-0.78,0.43-1.23,1.15-1.5c0.89-0.34,1.6-0.02,2.2,0.57c0.94,0.92,1.14,2.11,0.71,3.27c-0.48,1.3-1.54,2.17-2.93,2.29  c-1.67,0.15-3.35,0.05-5.03,0.09c-0.79,0.02-0.91-0.4-0.89-1.05c0.05-1.55,0.06-3.09,0.09-4.64C67.86,66.38,68.04,66.38,68.21,66.38  z"/>
<path class="st1" d="M37.5,66.38c0.03,1.55,0.03,3.09,0.1,4.64c0.04,0.83-0.29,1.08-1.08,1.05c-1.55-0.05-3.11,0.04-4.66-0.07  c-1.47-0.11-2.59-0.96-3.11-2.32c-0.41-1.08-0.26-2.22,0.58-3.13c0.62-0.68,1.35-1.06,2.32-0.7c0.9,0.33,1.23,0.92,1.11,1.87  c-0.08,0.64,1.89,3.09,2.46,3.16c0.56,0.07,0.71-0.41,0.95-0.75c0.8-1.13,0.77-2.45,0.8-3.75C37.14,66.38,37.32,66.38,37.5,66.38z"/>
<path class="st2" d="M38.36,83.77c-0.24,1.65-1.37,3.28,0.11,4.95c0.45,0.51,0.03,1.2-0.44,1.64c-0.56,0.54-1.25,0.77-2.04,0.58  c-1.79-0.44-2.82-2.35-2.25-4.2c0.69-2.23,2.09-3.28,4.65-3.49C38.38,83.42,38.37,83.6,38.36,83.77z"/>
<path class="st2" d="M66.79,83.25c2.66,0.21,4.27,1.5,4.78,3.84c0.37,1.66-0.76,3.46-2.39,3.86c-0.8,0.19-1.48-0.04-2.04-0.59  c-0.45-0.44-0.91-1.1-0.43-1.63c1.48-1.67,0.36-3.3,0.11-4.95C66.81,83.6,66.8,83.42,66.79,83.25z"/>
<path class="st2" d="M61.19,101.14c2.06-0.26,3.97,0.02,5.35,1.77c1.43,1.8,0.8,4.25-1.24,5.07c-0.95,0.38-1.71,0.1-2.35-0.57  c-0.56-0.59-0.61-1.22-0.13-1.99c0.61-1-0.47-3.43-1.63-3.98C61.18,101.34,61.18,101.24,61.19,101.14z"/>
<path class="st1" d="M67.66,52.96c-0.12-0.28,0.02-0.34,0.26-0.31C67.83,52.75,67.74,52.86,67.66,52.96z"/>
<path class="st3" d="M41.06,54.37c4.66,0.63,7.92,3.01,10.14,7.07C47.47,61.81,42.74,58.51,41.06,54.37z"/>
<path class="st3" d="M53.8,61.79c2.36-4.41,5.64-6.75,10.51-7.46C62.05,58.63,58.82,61.02,53.8,61.79z"/>
<path class="st2" d="M35.02,104.53c-0.02-2.49,2.01-4.36,4.15-3.78c1.09,0.29,1.91,0.95,1.88,2.21c-0.02,1.01-0.53,1.49-1.62,1.6  c-1.17,0.12-1.13,1.46-1.76,2.16c-0.35,0.39-0.33,1.28-0.99,1.13c-0.43-0.1-0.79-0.74-1.07-1.21C35.24,106,34.99,105.3,35.02,104.53  z"/>
<path class="st4" d="M62.4,88.19c-2.18-0.02-4.36-0.13-6.53-0.03c-1.26,0.05-1.54-0.35-1.54-1.55c0.05-9.75,0.03-19.51,0.03-29.26  c0-0.37,0.05-0.75-0.01-1.12c-0.08-0.46,0.37-1.31-0.58-1.25c-0.88,0.05-0.49,0.87-0.49,1.33c-0.02,10.13-0.02,20.25-0.02,30.38  c0,1.74-0.1,3.47-0.58,5.16c-2.16,7.48-9.93,10.89-16.32,7.06c-3.11-1.86-4.5-4.75-4.15-8.35c0.33-3.39,2.47-5.96,5.58-6.71  c2.81-0.67,5.37-0.1,7.23,2.24c1.66,2.08,1.88,4.41,0.63,6.79c-0.89,1.71-2.25,2.77-4.3,2.7c-0.33-0.01-0.76-0.18-0.97,0.29  c1.69,0.89,3.91,0.53,5.67-1.04c2.12-1.88,3.08-4.3,3.08-7.11c0-10.75,0-21.49-0.01-32.24c0-0.5,0.29-1.33-0.52-1.35  c-0.86-0.01-0.42,0.84-0.43,1.26c-0.04,4.41-0.08,8.82,0.01,13.23c0.03,1.35-0.4,1.66-1.67,1.61c-2.3-0.08-4.6,0.02-6.9,0.04  c-2.57,0.21-3.96,1.25-4.65,3.49c-0.57,1.86,0.46,3.77,2.25,4.2c0.8,0.2,1.48-0.04,2.04-0.58c0.47-0.44,0.89-1.13,0.44-1.64  c-1.47-1.67-0.35-3.3-0.11-4.95c3.19,0.78,4.93,3.34,4.28,6.3c-0.74,3.38-3.91,5.55-7.21,4.94c-5.58-1.05-7.82-7.52-4.25-12.29  c1.89-2.52,4.47-3.62,7.61-3.6c4.01,0.03,4.01,0,4.01-4.06c0-3.17-0.01-6.34,0.01-9.5c0-0.83,0.01-1.61-1.12-2.05  c0,3.81-0.05,7.51,0.03,11.21c0.02,1.14-0.27,1.51-1.44,1.47c-2.8-0.09-5.61,0.07-8.4-0.06c-5.15-0.24-8.55-5.05-7.02-9.78  c0.94-2.89,3.43-4.79,6.22-4.74c2.85,0.05,4.96,1.76,5.9,4.78c-0.03,1.3,0,2.61-0.8,3.75c-0.24,0.34-0.39,0.82-0.95,0.75  c-0.57-0.07-2.55-2.53-2.46-3.16c0.12-0.95-0.21-1.54-1.11-1.87c-0.97-0.36-1.7,0.02-2.32,0.7c-0.84,0.91-1,2.05-0.58,3.13  c0.52,1.36,1.64,2.21,3.11,2.32c1.55,0.11,3.1,0.02,4.66,0.07c0.79,0.03,1.12-0.22,1.08-1.05c-0.07-1.54-0.07-3.09-0.1-4.64  c0.02-4.23,0.01-8.45,0.09-12.67c0.02-0.89-0.43-1.16-1.1-1.42c-3.37-1.3-7.24-0.26-9.34,2.7c-4.6,6.49-7.1,13.75-7.44,21.7  c-0.29,6.81,0.77,13.36,4.31,19.34c0.48,0.81,0.91,1.45,1.94,1.78c2.02,0.65,3,3.03,2.31,5.04c-0.69,2.01-2.94,3.15-4.96,2.52  c-2.11-0.66-3.43-2.75-2.75-4.8c0.38-1.15,0.16-1.93-0.33-2.93c-7.76-15.74-5.82-30.79,3.64-45.09c2.83-4.28,7.31-5.5,12.37-4.62  c0.57,0.1,1.45,1.13,1.82,0c0.36-1.1,1.25-2.26-0.12-3.52c-2.7-2.49-5.23-5.15-7.83-7.75c-3.83-3.82-7.7-7.62-11.48-11.49  c-0.89-0.91-1.29-0.85-2.04,0.13c-5.86,7.6-9.12,16.14-9.61,25.72c-0.12,2.39-0.1,2.39-2.58,2.39c-1.37,0-2.75-0.09-4.11,0.03  C0.2,40.58-0.04,40.04,0,38.88c0.37-9.55,2.94-18.44,7.97-26.6c2.66-4.31,5.97-8.08,9.56-11.65c0.88-0.88,1.32-0.82,2.16,0.02  c7.5,7.55,15.07,15.03,22.56,22.59c1.09,1.1,1.68,1.48,2.79-0.05c1.91-2.64,4.52-4.59,7.3-6.29c1-0.61,1.78-0.71,2.84-0.04  c2.88,1.79,5.53,3.84,7.56,6.56c0.84,1.13,1.26,1.18,2.28,0.15C72.52,16,80.11,8.54,87.58,0.96c1.16-1.17,1.68-1.11,2.84,0.01  c8.5,8.24,14.12,18.02,16.29,29.7c0.52,2.81,0.77,5.65,0.89,8.51c0.04,0.96-0.23,1.33-1.24,1.28c-1.68-0.07-3.37-0.1-5.04,0.01  c-1.39,0.09-1.85-0.25-1.9-1.78c-0.31-9.37-3.31-17.84-8.91-25.39c-0.51-0.69-1.06-1.36-1.7-2.17  c-6.95,6.96-13.81,13.81-20.66,20.68c-1.11,1.11-0.05,2.24,0.21,3.26c0.22,0.85,1.06,0.07,1.54-0.04c5.04-1.16,10.11,0.61,12.96,4.9  c7.97,11.97,9.99,24.91,6.05,38.74c-0.63,2.21-1.75,4.24-2.86,6.25c-0.44,0.79-0.62,1.45-0.28,2.42c0.77,2.17-0.43,4.3-2.6,5.03  c-2.03,0.68-4.29-0.4-5.02-2.4c-0.77-2.1,0.23-4.43,2.39-5.16c0.88-0.29,1.33-0.77,1.72-1.51c7.41-14.41,5.55-28.16-3.08-41.35  c-2.14-3.26-6.04-3.95-10.03-2.26c-0.24-0.02-0.38,0.04-0.26,0.31c0.01,4.47,0.02,8.94,0.02,13.41c-0.03,1.55-0.04,3.09-0.09,4.64  c-0.02,0.65,0.09,1.07,0.89,1.05c1.68-0.05,3.36,0.05,5.03-0.09c1.39-0.12,2.45-1,2.93-2.29c0.43-1.16,0.23-2.35-0.71-3.27  c-0.6-0.58-1.31-0.91-2.2-0.57c-0.72,0.27-1.11,0.72-1.15,1.5c-0.06,1.18-1.96,3.82-2.57,3.49c-1.28-0.68-1.47-2.03-1.55-3.35  c-0.02-0.37-0.02-0.74-0.03-1.11c0.92-2.97,2.88-4.61,5.71-4.78c2.56-0.16,5.23,1.63,6.27,4.2c1.14,2.82,0.4,6.21-1.83,8.19  c-1.54,1.36-3.33,2.15-5.41,2.16c-2.68,0.01-5.36-0.05-8.03,0.03c-1.17,0.04-1.47-0.32-1.45-1.47c0.07-3.7,0.03-7.4,0.03-11.17  c-1.05,0.34-1.12,1.03-1.12,1.82c0.02,4.16,0.05,8.32-0.02,12.49c-0.02,1.15,0.44,1.3,1.42,1.3c1.8-0.01,3.62-0.23,5.39,0.28  c3.48,1.01,5.6,3.31,6.39,6.82c0.64,2.88-0.27,5.27-2.45,7.18c-2.23,1.95-5.44,2.18-7.8,0.67c-2.3-1.48-3.37-4.09-2.65-6.58  c0.61-2.09,2-3.37,4.17-3.75c0.25,1.65,1.37,3.29-0.11,4.95c-0.47,0.53-0.02,1.19,0.43,1.63c0.56,0.54,1.24,0.78,2.04,0.59  c1.63-0.39,2.76-2.2,2.39-3.86c-0.52-2.33-2.12-3.62-4.78-3.84c-2.24-0.02-4.48-0.14-6.71-0.04c-1.41,0.06-1.91-0.26-1.87-1.79  c0.12-4.41,0.05-8.82,0.03-13.22c0-0.39,0.32-1.11-0.42-1.1c-0.72,0-0.53,0.71-0.53,1.16c-0.01,9.19,0.01,18.38-0.03,27.57  c0,1.01,0.33,1.28,1.28,1.22c1.49-0.08,2.99-0.15,4.48-0.06c3.48,0.21,6.24,1.73,7.71,4.97c1.22,2.69,0.93,5.34-0.95,7.69  c-2.98,3.73-8.69,3.3-10.79-0.78c-1.34-2.61-0.55-5.29,2.21-7.44c1.16,0.55,2.24,2.98,1.63,3.98c-0.48,0.78-0.43,1.4,0.13,1.99  c0.63,0.67,1.4,0.95,2.35,0.57c2.04-0.81,2.66-3.26,1.24-5.07C66.37,88.2,64.46,87.93,62.4,88.19z M42.28,41.41  c1.67,4.14,6.4,7.44,10.14,7.07C50.2,44.42,46.94,42.04,42.28,41.41z M55.02,48.83c5.01-0.76,8.24-3.15,10.51-7.46  C60.65,42.07,57.37,44.42,55.02,48.83z M36.23,91.57c-0.03,0.77,0.23,1.47,0.6,2.11c0.28,0.47,0.64,1.11,1.07,1.21  c0.66,0.15,0.64-0.74,0.99-1.13c0.62-0.7,0.59-2.04,1.76-2.16c1.09-0.11,1.6-0.59,1.62-1.6c0.03-1.26-0.79-1.91-1.88-2.21  C38.24,87.21,36.21,89.08,36.23,91.57z"/>
</svg>
