<svg id="Layer_1" data-name="Layer 1" xmlns="http://www.w3.org/2000/svg" viewBox="0 20 35.16 1">
    <defs>
        <style>.cls-2{fill:#FFFFFF;}</style>
    </defs>
    <title>grakn-mythos-text</title>
    <g class="cls-2">
        <path d="M2.08,22.56H1.85v-.4h.23l2.14,0v.2a2.11,2.11,0,0,1-2.17,1.82,2,2,0,0,1-2-1.85,2.08,2.08,0,0,1,.45-1.38h0a2.56,2.56,0,0,1,1.81-.71h0a1.68,1.68,0,0,1,1.39.57l.25.32H3.42L3.35,21a1.15,1.15,0,0,0-1-.41,2.14,2.14,0,0,0-1.5.54,1.51,1.51,0,0,0-.4,1.12,1.58,1.58,0,0,0,1.59,1.48c.84,0,1.77-.58,1.77-1.22Z"
              transform="translate(-0.05 -2.49)"/>
        <path d="M4.81,21.61a2,2,0,0,1,1.32-.47h.2v.4h-.2c-.79,0-1.31.36-1.32,1.09v1.53h-.4v-3h.4v.47Z"
              transform="translate(-0.05 -2.49)"/>
        <path d="M6.6,22.66a1.53,1.53,0,0,1,1.49-1.52,1.47,1.47,0,0,1,1.07.46v-.46h.4v3h-.4v-.45a1.46,1.46,0,0,1-1.07.45A1.52,1.52,0,0,1,6.6,22.66Zm.4,0a1.06,1.06,0,0,0,1.09,1.1,1,1,0,0,0,1.07-1.08v0a1,1,0,0,0-1.07-1.12A1.07,1.07,0,0,0,7,22.66Z"
              transform="translate(-0.05 -2.49)"/>
        <path d="M10.65,22.85h-.16v1.31h-.41v-4.1h.41v2.39h.16l1.49-1.25.06-.06h.58l-.36.35-1.35,1.16,1.35,1.17.36.34H12.2l-.06-.05Z"
              transform="translate(-0.05 -2.49)"/>
        <path d="M13.34,21.5a1.45,1.45,0,0,1,.92-.36,1.33,1.33,0,0,1,1.32,1.29v1.74h-.39V22.43a.88.88,0,0,0-.92-.89.87.87,0,0,0-.92.89v1.73h-.4v-3h.4v.36Z"
              transform="translate(-0.05 -2.49)"/>
        <path d="M18.29,24v.2h-.4v-3.8h.33l.05.12,1.48,3,1.48-3,.05-.12h.33v3.8h-.4V21.51L20,24l-.06.12h-.3L19.54,24l-1.25-2.53Z"
              transform="translate(-0.05 -2.49)"/>
        <path d="M24,21.27l0-.13h.43l-.1.27L23.26,24c-.13.46-.81.87-1.15,1.05l-.3.17v-.46l.1-.06A2.14,2.14,0,0,0,22.8,24l-1-2.55-.11-.27h.43l.05.13.92,2.13Z"
              transform="translate(-0.05 -2.49)"/>
        <path d="M25.18,21.57V23.3c0,.34.15.46.55.46h.2v.4h-.2a.87.87,0,0,1-.95-.86V21.57h-.39v-.4h.39v-.63h.4v.63h.61v.4h-.61Z"
              transform="translate(-0.05 -2.49)"/>
        <path d="M29.13,24v.21h-.4V22.43a.92.92,0,0,0-1.84,0v1.73h-.4V20.38h.4V21.5a1.47,1.47,0,0,1,.92-.36,1.32,1.32,0,0,1,1.32,1.29Z"
              transform="translate(-0.05 -2.49)"/>
        <path d="M29.4,22.65a1.5,1.5,0,1,1,1.49,1.51A1.52,1.52,0,0,1,29.4,22.65Zm.4,0a1.1,1.1,0,1,0,1.09-1.11A1.06,1.06,0,0,0,29.8,22.65Z"
              transform="translate(-0.05 -2.49)"/>
        <path d="M35.08,22v.2h-.4V22c0-.26-.28-.44-.75-.45s-.74.2-.75.45c0,.51,2,.4,2,1.32,0,.47-.58.86-1.26.85s-1.27-.38-1.27-.85v-.2h.4v.2c0,.26.34.46.87.45s.87-.19.86-.45c0-.5-2-.38-2-1.32,0-.46.54-.84,1.15-.85S35.08,21.53,35.08,22Z"
              transform="translate(-0.05 -2.49)"/>
    </g>
</svg>
