<svg id="Layer_1" data-name="Layer 1" xmlns="http://www.w3.org/2000/svg" viewBox="0 0 35.16 22.75"><defs><style>.cls-1{fill:#7a68e8;}.cls-2{isolation:isolate;}</style></defs><title>grakn-mythos-text</title><path class="cls-1" d="M19.12,17.18H18c-.2,0-.25-.07-.25-.27,0-1.62,0-3.24,0-4.87a1.2,1.2,0,0,0,0-.19c0-.07.06-.21-.1-.2s-.07.14-.07.21v5.07a3.11,3.11,0,0,1-.1.86A1.84,1.84,0,0,1,14.8,19a1.34,1.34,0,0,1-.68-1.39,1.21,1.21,0,0,1,.93-1.12,1.09,1.09,0,0,1,1.2.38,1,1,0,0,1,.1,1.13.74.74,0,0,1-.71.45c-.05,0-.13,0-.17,0a.85.85,0,0,0,1-.17,1.51,1.51,0,0,0,.52-1.19V11.74c0-.09,0-.22-.09-.23s-.07.14-.07.21c0,.74,0,1.48,0,2.21,0,.22-.07.28-.28.27-.38,0-.76,0-1.15,0a.75.75,0,0,0-.77.58.54.54,0,0,0,.37.7.35.35,0,0,0,.34-.1c.05-.08.12-.19.05-.28-.24-.28-.06-.55,0-.83A.88.88,0,0,1,16,15.34a1,1,0,0,1-1.2.82,1.25,1.25,0,0,1-.71-2,1.5,1.5,0,0,1,1.27-.6c.68,0,.68,0,.68-.68V11.25c0-.14,0-.27-.19-.34,0,.64,0,1.26,0,1.88,0,.19,0,.25-.24.24-.47,0-.93,0-1.4,0a1.24,1.24,0,0,1-1.17-1.63,1.08,1.08,0,0,1,1-.79,1,1,0,0,1,1,.79A1.14,1.14,0,0,1,15,12c-.05.06-.06.14-.16.12s-.43-.42-.41-.52a.25.25,0,0,0-.18-.31.3.3,0,0,0-.38.11.48.48,0,0,0-.1.52.56.56,0,0,0,.52.38c.26,0,.52,0,.78,0s.18,0,.18-.17,0-.51,0-.78c0-.7,0-1.41,0-2.11,0-.15-.07-.19-.18-.24a1.31,1.31,0,0,0-1.56.46,6.54,6.54,0,0,0-1.24,3.61A5.59,5.59,0,0,0,13,16.32a.48.48,0,0,0,.32.3.64.64,0,0,1,.38.83.67.67,0,0,1-.83.42.65.65,0,0,1-.46-.8.6.6,0,0,0-.05-.49A7.09,7.09,0,0,1,13,9.07,1.88,1.88,0,0,1,15,8.3c.1,0,.25.19.31,0s.21-.37,0-.58c-.45-.42-.87-.86-1.31-1.29-.63-.64-1.28-1.27-1.91-1.92-.15-.15-.22-.14-.34,0a7.31,7.31,0,0,0-1.65,4.29c0,.4,0,.4-.42.4-.23,0-.47,0-.69,0S8.72,9.16,8.73,9a8.82,8.82,0,0,1,1.33-4.43A10.21,10.21,0,0,1,11.65,2.6c.15-.15.22-.14.36,0,1.24,1.25,2.51,2.5,3.76,3.76.18.18.28.24.46,0a3.93,3.93,0,0,1,1.22-1,.36.36,0,0,1,.47,0,4.39,4.39,0,0,1,1.26,1.09c.14.2.21.2.39,0l3.76-3.77c.19-.19.28-.18.47,0A9.12,9.12,0,0,1,26.52,7.6,9.76,9.76,0,0,1,26.66,9c0,.16,0,.22-.2.22a7.85,7.85,0,0,0-.84,0c-.24,0-.31,0-.31-.29a7.44,7.44,0,0,0-1.49-4.24l-.29-.36L20.09,7.8c-.18.18,0,.37,0,.54s.18,0,.26,0a2,2,0,0,1,2.16.82,7.48,7.48,0,0,1,1,6.46,5.41,5.41,0,0,1-.48,1,.44.44,0,0,0-.05.4.64.64,0,0,1-.43.84.68.68,0,0,1-.84-.4.66.66,0,0,1,.4-.86.5.5,0,0,0,.29-.26,6.44,6.44,0,0,0-.51-6.89,1.28,1.28,0,0,0-1.67-.38c-.05,0-.07,0-.05.05v2.24c0,.26,0,.52,0,.78,0,.1,0,.17.15.17.28,0,.56,0,.84,0a.55.55,0,0,0,.49-.38.5.5,0,0,0-.13-.55.32.32,0,0,0-.36-.09.26.26,0,0,0-.19.25c0,.2-.33.64-.43.58s-.24-.34-.26-.55a1.15,1.15,0,0,0,0-.19,1,1,0,0,1,.95-.79,1.09,1.09,0,0,1,1,.7,1.21,1.21,0,0,1-.3,1.36,1.32,1.32,0,0,1-.91.36c-.44,0-.89,0-1.34,0-.19,0-.24,0-.24-.24,0-.62,0-1.24,0-1.87-.18.06-.19.18-.19.31,0,.69,0,1.38,0,2.08,0,.19.07.22.24.22a3.4,3.4,0,0,1,.9,0,1.43,1.43,0,0,1,1.06,1.14,1.15,1.15,0,0,1-.41,1.19,1.09,1.09,0,0,1-1.3.12,1,1,0,0,1-.44-1.1.82.82,0,0,1,.69-.63c.05.28.23.55,0,.83-.08.09,0,.2.07.27a.35.35,0,0,0,.34.1.57.57,0,0,0,.4-.65.8.8,0,0,0-.8-.64c-.37,0-.74,0-1.11,0s-.32,0-.31-.3c0-.73,0-1.47,0-2.2,0-.06.05-.18-.07-.18s-.09.12-.09.19c0,1.53,0,3.06,0,4.6,0,.16.05.21.22.2a4.68,4.68,0,0,1,.75,0,1.41,1.41,0,0,1,1.29.82,1.18,1.18,0,0,1-.16,1.28,1.08,1.08,0,0,1-1.8-.13.93.93,0,0,1,.36-1.23c.19.09.38.49.27.66a.24.24,0,0,0,0,.33.33.33,0,0,0,.39.1.54.54,0,0,0,.21-.85A.92.92,0,0,0,19.12,17.18ZM15.77,9.39a1.9,1.9,0,0,0,1.69,1.18A2.13,2.13,0,0,0,15.77,9.39Zm2.13,1.24a2.22,2.22,0,0,0,1.75-1.25A2.18,2.18,0,0,0,17.9,10.63Zm-3.14,7.12a.62.62,0,0,0,.1.35c0,.08.1.18.17.2s.1-.12.17-.19.09-.34.29-.36.27-.1.27-.27a.36.36,0,0,0-.31-.37A.6.6,0,0,0,14.76,17.75Z" transform="translate(-0.05 -2.49)"/><g class="cls-2"><path d="M2.08,22.56H1.85v-.4h.23l2.14,0v.2a2.11,2.11,0,0,1-2.17,1.82,2,2,0,0,1-2-1.85,2.08,2.08,0,0,1,.45-1.38h0a2.56,2.56,0,0,1,1.81-.71h0a1.68,1.68,0,0,1,1.39.57l.25.32H3.42L3.35,21a1.15,1.15,0,0,0-1-.41,2.14,2.14,0,0,0-1.5.54,1.51,1.51,0,0,0-.4,1.12,1.58,1.58,0,0,0,1.59,1.48c.84,0,1.77-.58,1.77-1.22Z" transform="translate(-0.05 -2.49)"/><path d="M4.81,21.61a2,2,0,0,1,1.32-.47h.2v.4h-.2c-.79,0-1.31.36-1.32,1.09v1.53h-.4v-3h.4v.47Z" transform="translate(-0.05 -2.49)"/><path d="M6.6,22.66a1.53,1.53,0,0,1,1.49-1.52,1.47,1.47,0,0,1,1.07.46v-.46h.4v3h-.4v-.45a1.46,1.46,0,0,1-1.07.45A1.52,1.52,0,0,1,6.6,22.66Zm.4,0a1.06,1.06,0,0,0,1.09,1.1,1,1,0,0,0,1.07-1.08v0a1,1,0,0,0-1.07-1.12A1.07,1.07,0,0,0,7,22.66Z" transform="translate(-0.05 -2.49)"/><path d="M10.65,22.85h-.16v1.31h-.41v-4.1h.41v2.39h.16l1.49-1.25.06-.06h.58l-.36.35-1.35,1.16,1.35,1.17.36.34H12.2l-.06-.05Z" transform="translate(-0.05 -2.49)"/><path d="M13.34,21.5a1.45,1.45,0,0,1,.92-.36,1.33,1.33,0,0,1,1.32,1.29v1.74h-.39V22.43a.88.88,0,0,0-.92-.89.87.87,0,0,0-.92.89v1.73h-.4v-3h.4v.36Z" transform="translate(-0.05 -2.49)"/><path d="M18.29,24v.2h-.4v-3.8h.33l.05.12,1.48,3,1.48-3,.05-.12h.33v3.8h-.4V21.51L20,24l-.06.12h-.3L19.54,24l-1.25-2.53Z" transform="translate(-0.05 -2.49)"/><path d="M24,21.27l0-.13h.43l-.1.27L23.26,24c-.13.46-.81.87-1.15,1.05l-.3.17v-.46l.1-.06A2.14,2.14,0,0,0,22.8,24l-1-2.55-.11-.27h.43l.05.13.92,2.13Z" transform="translate(-0.05 -2.49)"/><path d="M25.18,21.57V23.3c0,.34.15.46.55.46h.2v.4h-.2a.87.87,0,0,1-.95-.86V21.57h-.39v-.4h.39v-.63h.4v.63h.61v.4h-.61Z" transform="translate(-0.05 -2.49)"/><path d="M29.13,24v.21h-.4V22.43a.92.92,0,0,0-1.84,0v1.73h-.4V20.38h.4V21.5a1.47,1.47,0,0,1,.92-.36,1.32,1.32,0,0,1,1.32,1.29Z" transform="translate(-0.05 -2.49)"/><path d="M29.4,22.65a1.5,1.5,0,1,1,1.49,1.51A1.52,1.52,0,0,1,29.4,22.65Zm.4,0a1.1,1.1,0,1,0,1.09-1.11A1.06,1.06,0,0,0,29.8,22.65Z" transform="translate(-0.05 -2.49)"/><path d="M35.08,22v.2h-.4V22c0-.26-.28-.44-.75-.45s-.74.2-.75.45c0,.51,2,.4,2,1.32,0,.47-.58.86-1.26.85s-1.27-.38-1.27-.85v-.2h.4v.2c0,.26.34.46.87.45s.87-.19.86-.45c0-.5-2-.38-2-1.32,0-.46.54-.84,1.15-.85S35.08,21.53,35.08,22Z" transform="translate(-0.05 -2.49)"/></g></svg>